#Comment line ignore any data following # character 
#Hierarchical Translation and Rotation (.htr) file 
[Header]	
#Header keywords are followed by a single value 
FileType HTR		#Single word string
DataType HTRS		#Translation followed by rotation and scale data
FileVersion 1		#integer
NumSegments 84		#integer
NumFrames 2		#integer
DataFrameRate 30		#integer, data frame rate in this file
EulerRotationOrder ZYX
CalibrationUnits mm
RotationUnits Degrees
GlobalAxisofGravity Y
BoneLengthAxis Y
ScaleFactor 1.00
[SegmentNames&Hierarchy]
#CHILD	PARENT
MASTER GLOBAL
root MASTER
chest root
L_mid_tent01 root
R_mid_tent01 root
spine01 root
Bip01_Neck chest
L_humerus chest
R_humerus chest
weapon_bone chest
Bip01_Head Bip01_Neck
eye_left_bone Bip01_Head
eye_right_bone Bip01_Head
L_forearm L_humerus
L_front_hand L_forearm
L_weapon_bone L_forearm
L_front_hand01_01 L_front_hand
L_front_hand02_01 L_front_hand
L_front_hand03_01 L_front_hand
L_front_hand01_02 L_front_hand01_01
L_front_hand02_02 L_front_hand02_01
L_front_hand03_02 L_front_hand03_01
R_forearm R_humerus
R_front_hand R_forearm
R_weapon_bone R_forearm
R_front_hand01_01 R_front_hand
R_front_hand02_01 R_front_hand
R_front_hand03_01 R_front_hand
R_front_hand01_02 R_front_hand01_01
R_front_hand02_02 R_front_hand02_01
R_front_hand03_02 R_front_hand03_01
null_rope01_connect L_mid_tent01
Rope1_Seg01 null_rope01_connect
Rope1_Seg02 Rope1_Seg01
Rope1_Seg03 Rope1_Seg02
Rope1_Seg04 Rope1_Seg03
Rope1_Seg05 Rope1_Seg04
Rope1_Seg06 Rope1_Seg05
Rope1_Seg07 Rope1_Seg06
Rope1_Seg09 Rope1_Seg07
L_mid_hand01 Rope1_Seg09
L_mid_hand02 Rope1_Seg09
L_mid_hand03 Rope1_Seg09
null_rope02_connect R_mid_tent01
Rope2_Seg01 null_rope02_connect
Rope2_Seg02 Rope2_Seg01
Rope2_Seg03 Rope2_Seg02
Rope2_Seg04 Rope2_Seg03
Rope2_Seg05 Rope2_Seg04
Rope2_Seg06 Rope2_Seg05
Rope2_Seg07 Rope2_Seg06
Rope2_Seg09 Rope2_Seg07
R_mid_hand01 Rope2_Seg09
R_mid_hand02 Rope2_Seg09
R_mid_hand03 Rope2_Seg09
spine02 spine01
spine03 spine02
pelvis spine03
null_rope03_connect pelvis
null_rope04_connect pelvis
Rope3_Seg01 null_rope03_connect
Rope3_Seg02 Rope3_Seg01
Rope3_Seg03 Rope3_Seg02
Rope3_Seg04 Rope3_Seg03
Rope3_Seg05 Rope3_Seg04
Rope3_Seg06 Rope3_Seg05
Rope3_Seg07 Rope3_Seg06
Rope3_Seg08 Rope3_Seg07
Rope3_Seg09 Rope3_Seg08
R_rear_hand01 Rope3_Seg09
R_rear_hand02 Rope3_Seg09
R_rear_hand03 Rope3_Seg09
Rope4_Seg01 null_rope04_connect
Rope4_Seg02 Rope4_Seg01
Rope4_Seg03 Rope4_Seg02
Rope4_Seg04 Rope4_Seg03
Rope4_Seg05 Rope4_Seg04
Rope4_Seg06 Rope4_Seg05
Rope4_Seg07 Rope4_Seg06
Rope4_Seg08 Rope4_Seg07
Rope4_Seg09 Rope4_Seg08
L_rear_hand01 Rope4_Seg09
L_rear_hand02 Rope4_Seg09
L_rear_hand03 Rope4_Seg09
[BasePosition]
#SegmentName Tx, Ty, Tz, Rx, Ry, Rz, BoneLength
MASTER 0.000000 0.000000 0.000000 -90.000000 0.000000 0.000000 10.000000 
root 0.000000 0.000000 0.000000 0.000000 0.000000 0.000000 10.000000 
chest 0.000000 0.000000 0.000000 0.000000 0.000000 0.000000 10.000000 
L_mid_tent01 0.000000 0.000000 0.000000 0.000000 0.000000 0.000000 10.000000 
R_mid_tent01 0.000000 0.000000 0.000000 0.000000 0.000000 0.000000 10.000000 
spine01 0.000000 0.000000 0.000000 0.000000 0.000000 0.000000 10.000000 
Bip01_Neck 0.000000 0.000000 0.000000 0.000000 0.000000 0.000000 10.000000 
L_humerus 0.000000 0.000000 0.000000 0.000000 0.000000 0.000000 10.000000 
R_humerus 0.000000 0.000000 0.000000 0.000000 0.000000 0.000000 10.000000 
weapon_bone 0.000000 0.000000 0.000000 0.000000 0.000000 0.000000 10.000000 
Bip01_Head 0.000000 0.000000 0.000000 0.000000 0.000000 0.000000 10.000000 
eye_left_bone 0.000000 0.000000 0.000000 0.000000 0.000000 0.000000 10.000000 
eye_right_bone 0.000000 0.000000 0.000000 0.000000 0.000000 0.000000 10.000000 
L_forearm 0.000000 0.000000 0.000000 0.000000 0.000000 0.000000 10.000000 
L_front_hand 0.000000 0.000000 0.000000 0.000000 0.000000 0.000000 10.000000 
L_weapon_bone 0.000000 0.000000 0.000000 0.000000 0.000000 0.000000 10.000000 
L_front_hand01_01 0.000000 0.000000 0.000000 0.000000 0.000000 0.000000 10.000000 
L_front_hand02_01 0.000000 0.000000 0.000000 0.000000 0.000000 0.000000 10.000000 
L_front_hand03_01 0.000000 0.000000 0.000000 0.000000 0.000000 0.000000 10.000000 
L_front_hand01_02 0.000000 0.000000 0.000000 0.000000 0.000000 0.000000 10.000000 
L_front_hand02_02 0.000000 0.000000 0.000000 0.000000 0.000000 0.000000 10.000000 
L_front_hand03_02 0.000000 0.000000 0.000000 0.000000 0.000000 0.000000 10.000000 
R_forearm 0.000000 0.000000 0.000000 0.000000 0.000000 0.000000 10.000000 
R_front_hand 0.000000 0.000000 0.000000 0.000000 0.000000 0.000000 10.000000 
R_weapon_bone 0.000000 0.000000 0.000000 0.000000 0.000000 0.000000 10.000000 
R_front_hand01_01 0.000000 0.000000 0.000000 0.000000 0.000000 0.000000 10.000000 
R_front_hand02_01 0.000000 0.000000 0.000000 0.000000 0.000000 0.000000 10.000000 
R_front_hand03_01 0.000000 0.000000 0.000000 0.000000 0.000000 0.000000 10.000000 
R_front_hand01_02 0.000000 0.000000 0.000000 0.000000 0.000000 0.000000 10.000000 
R_front_hand02_02 0.000000 0.000000 0.000000 0.000000 0.000000 0.000000 10.000000 
R_front_hand03_02 0.000000 0.000000 0.000000 0.000000 0.000000 0.000000 10.000000 
null_rope01_connect 0.000000 0.000000 0.000000 0.000000 0.000000 0.000000 10.000000 
Rope1_Seg01 0.000000 0.000000 0.000000 0.000000 0.000000 0.000000 10.000000 
Rope1_Seg02 0.000000 0.000000 0.000000 0.000000 0.000000 0.000000 10.000000 
Rope1_Seg03 0.000000 0.000000 0.000000 0.000000 0.000000 0.000000 10.000000 
Rope1_Seg04 0.000000 0.000000 0.000000 0.000000 0.000000 0.000000 10.000000 
Rope1_Seg05 0.000000 0.000000 0.000000 0.000000 0.000000 0.000000 10.000000 
Rope1_Seg06 0.000000 0.000000 0.000000 0.000000 0.000000 0.000000 10.000000 
Rope1_Seg07 0.000000 0.000000 0.000000 0.000000 0.000000 0.000000 10.000000 
Rope1_Seg09 0.000000 0.000000 0.000000 0.000000 0.000000 0.000000 10.000000 
L_mid_hand01 0.000000 0.000000 0.000000 0.000000 0.000000 0.000000 10.000000 
L_mid_hand02 0.000000 0.000000 0.000000 0.000000 0.000000 0.000000 10.000000 
L_mid_hand03 0.000000 0.000000 0.000000 0.000000 0.000000 0.000000 10.000000 
null_rope02_connect 0.000000 0.000000 0.000000 0.000000 0.000000 0.000000 10.000000 
Rope2_Seg01 0.000000 0.000000 0.000000 0.000000 0.000000 0.000000 10.000000 
Rope2_Seg02 0.000000 0.000000 0.000000 0.000000 0.000000 0.000000 10.000000 
Rope2_Seg03 0.000000 0.000000 0.000000 0.000000 0.000000 0.000000 10.000000 
Rope2_Seg04 0.000000 0.000000 0.000000 0.000000 0.000000 0.000000 10.000000 
Rope2_Seg05 0.000000 0.000000 0.000000 0.000000 0.000000 0.000000 10.000000 
Rope2_Seg06 0.000000 0.000000 0.000000 0.000000 0.000000 0.000000 10.000000 
Rope2_Seg07 0.000000 0.000000 0.000000 0.000000 0.000000 0.000000 10.000000 
Rope2_Seg09 0.000000 0.000000 0.000000 0.000000 0.000000 0.000000 10.000000 
R_mid_hand01 0.000000 0.000000 0.000000 0.000000 0.000000 0.000000 10.000000 
R_mid_hand02 0.000000 0.000000 0.000000 0.000000 0.000000 0.000000 10.000000 
R_mid_hand03 0.000000 0.000000 0.000000 0.000000 0.000000 0.000000 10.000000 
spine02 0.000000 0.000000 0.000000 0.000000 0.000000 0.000000 10.000000 
spine03 0.000000 0.000000 0.000000 0.000000 0.000000 0.000000 10.000000 
pelvis 0.000000 0.000000 0.000000 0.000000 0.000000 0.000000 10.000000 
null_rope03_connect 0.000000 0.000000 0.000000 0.000000 0.000000 0.000000 10.000000 
null_rope04_connect 0.000000 0.000000 0.000000 0.000000 0.000000 0.000000 10.000000 
Rope3_Seg01 0.000000 0.000000 0.000000 0.000000 0.000000 0.000000 10.000000 
Rope3_Seg02 0.000000 0.000000 0.000000 0.000000 0.000000 0.000000 10.000000 
Rope3_Seg03 0.000000 0.000000 0.000000 0.000000 0.000000 0.000000 10.000000 
Rope3_Seg04 0.000000 0.000000 0.000000 0.000000 0.000000 0.000000 10.000000 
Rope3_Seg05 0.000000 0.000000 0.000000 0.000000 0.000000 0.000000 10.000000 
Rope3_Seg06 0.000000 0.000000 0.000000 0.000000 0.000000 0.000000 10.000000 
Rope3_Seg07 0.000000 0.000000 0.000000 0.000000 0.000000 0.000000 10.000000 
Rope3_Seg08 0.000000 0.000000 0.000000 0.000000 0.000000 0.000000 10.000000 
Rope3_Seg09 0.000000 0.000000 0.000000 0.000000 0.000000 0.000000 10.000000 
R_rear_hand01 0.000000 0.000000 0.000000 0.000000 0.000000 0.000000 10.000000 
R_rear_hand02 0.000000 0.000000 0.000000 0.000000 0.000000 0.000000 10.000000 
R_rear_hand03 0.000000 0.000000 0.000000 0.000000 0.000000 0.000000 10.000000 
Rope4_Seg01 0.000000 0.000000 0.000000 0.000000 0.000000 0.000000 10.000000 
Rope4_Seg02 0.000000 0.000000 0.000000 0.000000 0.000000 0.000000 10.000000 
Rope4_Seg03 0.000000 0.000000 0.000000 0.000000 0.000000 0.000000 10.000000 
Rope4_Seg04 0.000000 0.000000 0.000000 0.000000 0.000000 0.000000 10.000000 
Rope4_Seg05 0.000000 0.000000 0.000000 0.000000 0.000000 0.000000 10.000000 
Rope4_Seg06 0.000000 0.000000 0.000000 0.000000 0.000000 0.000000 10.000000 
Rope4_Seg07 0.000000 0.000000 0.000000 0.000000 0.000000 0.000000 10.000000 
Rope4_Seg08 0.000000 0.000000 0.000000 0.000000 0.000000 0.000000 10.000000 
Rope4_Seg09 0.000000 0.000000 0.000000 0.000000 0.000000 0.000000 10.000000 
L_rear_hand01 0.000000 0.000000 0.000000 0.000000 0.000000 0.000000 10.000000 
L_rear_hand02 0.000000 0.000000 0.000000 0.000000 0.000000 0.000000 10.000000 
L_rear_hand03 0.000000 0.000000 0.000000 0.000000 0.000000 0.000000 10.000000 
#Beginning of Data. Separated by tabs
#Fr	Tx	Ty	Tz	Rx	Ry	Rz	SF
[MASTER]
24 0.000000 0.000000 0.000000 0.001660 0.001660 0.001660 0.000000
25 0.000000 0.000000 0.000000 0.001660 0.001660 0.001660 0.000000
[root]
24 -30.301340 -56.299023 1501.692017 -82.660156 -41.041489 -86.892876 1503.052490
25 -29.597319 -56.460934 1501.605591 -81.661049 -40.660271 -87.099030 1502.958130
[chest]
24 -84.512650 -34.090519 0.000000 -10.411342 -15.452729 171.057312 91.129311
25 -84.512650 -34.090519 0.000000 -9.348680 -12.920184 172.241653 91.129311
[L_mid_tent01]
24 27.299175 22.178991 -249.918701 3.862628 36.229195 81.347603 252.381683
25 27.299179 22.178986 -249.918701 3.862628 36.229202 81.347610 252.381683
[R_mid_tent01]
24 23.228794 24.509907 226.238495 160.432037 -47.061241 87.899765 228.744751
25 23.228794 24.509907 226.238495 160.432037 -47.061241 87.899765 228.744751
[spine01]
24 -0.361383 -0.195265 0.000000 0.002062 0.001122 32.879829 0.410763
25 -0.361383 -0.195265 0.000000 0.002062 0.001122 32.879829 0.410763
[Bip01_Neck]
24 165.484543 71.581718 0.000119 176.643677 -1.657967 43.431911 180.302734
25 165.484543 71.581718 0.000119 176.643677 -1.657967 43.431911 180.302734
[L_humerus]
24 -13.983130 -135.272980 -120.471481 156.317383 70.210045 -112.010246 181.680161
25 -13.983130 -135.272980 -120.471481 156.317398 70.210052 -112.010239 181.680161
[R_humerus]
24 -13.983309 -135.273102 125.287651 -172.382248 -66.903831 -92.554016 184.909012
25 -13.983309 -135.273102 125.287651 -172.382263 -66.903831 -92.553993 184.909012
[weapon_bone]
24 235.964890 -300.705902 0.000000 0.000000 -89.951546 -128.212341 382.234833
25 235.964890 -300.705902 0.000000 0.000000 -89.951546 -128.212341 382.234833
[Bip01_Head]
24 213.444199 185.715393 11.776929 18.127510 3.217937 -43.890461 283.173676
25 213.444199 185.715393 11.776929 15.782020 3.233587 -43.888996 283.173676
[eye_left_bone]
24 -24.626970 125.451866 -64.772606 0.000000 -90.000000 -99.840431 143.318359
25 -24.626970 125.451866 -64.772606 0.000000 -90.000000 -99.840431 143.318359
[eye_right_bone]
24 -24.626970 125.451866 64.327362 0.000000 -89.965736 80.156380 143.117676
25 -24.626970 125.451866 64.327362 0.000000 -89.965736 80.156380 143.117676
[L_forearm]
24 322.776093 0.000000 -0.000119 0.000396 -0.002314 -109.419975 322.776093
25 322.776093 0.000000 -0.000119 0.000396 -0.002314 -109.419975 322.776093
[L_front_hand]
24 241.149185 -0.042021 -3.300071 -178.667953 -1.835447 -27.422350 241.171753
25 241.149185 -0.042021 -3.300071 -178.667953 -1.835447 -27.422350 241.171753
[L_weapon_bone]
24 156.183838 0.000000 0.000000 0.000014 0.000007 0.000001 156.183838
25 156.183838 0.000000 0.000000 0.000014 0.000007 0.000001 156.183838
[L_front_hand01_01]
24 86.095154 20.947098 -0.655860 -0.328329 -0.501879 70.955482 88.609184
25 86.095154 20.947098 -0.655860 -0.335131 -0.500211 71.723793 88.609184
[L_front_hand02_01]
24 86.935165 -11.437475 24.513514 147.981094 -57.745911 -53.867275 91.046425
25 86.935165 -11.437475 24.513514 149.028946 -58.148323 -55.100948 91.046425
[L_front_hand03_01]
24 86.637497 -14.123976 -20.424902 -147.939621 55.963066 -55.586479 90.126129
25 86.637497 -14.123976 -20.424902 -148.918823 56.366688 -56.764717 90.126129
[L_front_hand01_02]
24 71.020905 -0.000179 0.000030 0.000320 -0.002325 -105.673012 71.020905
25 71.020905 -0.000179 0.000030 0.000321 -0.002325 -105.728027 71.020905
[L_front_hand02_02]
24 71.020927 -0.000119 0.000060 0.000320 -0.002325 -105.673012 71.020927
25 71.020927 -0.000119 0.000060 0.000321 -0.002325 -105.728027 71.020927
[L_front_hand03_02]
24 71.020905 -0.000060 0.000060 0.000320 -0.002325 -105.673012 71.020905
25 71.020905 -0.000060 0.000060 0.000321 -0.002325 -105.728027 71.020905
[R_forearm]
24 322.776428 -0.000060 0.000030 0.202103 0.065158 -108.062805 322.776428
25 322.776428 -0.000060 0.000030 0.202103 0.065158 -108.062805 322.776428
[R_front_hand]
24 238.847015 -0.006795 2.210259 -2.635298 -10.645461 -26.312506 238.857239
25 238.847015 -0.006795 2.210259 -2.635298 -10.645461 -26.312506 238.857239
[R_weapon_bone]
24 155.664093 0.002503 -0.000030 0.003487 0.001180 -90.988930 155.664078
25 155.664093 0.002503 -0.000030 0.003487 0.001180 -90.988930 155.664078
[R_front_hand01_01]
24 87.624611 14.231146 22.918642 -150.319733 -58.611870 56.726913 91.683487
25 87.624611 14.231146 22.918642 -151.998260 -59.169334 58.688148 91.683487
[R_front_hand02_01]
24 89.356956 14.367283 -19.491137 150.553223 56.974075 58.956432 92.579636
25 89.356956 14.367283 -19.491137 152.130127 57.525928 60.828327 92.579636
[R_front_hand03_01]
24 87.286232 -22.307278 -0.143439 0.140549 -0.429018 -72.881989 90.091743
25 87.286232 -22.307278 -0.143439 0.147862 -0.431521 -74.042168 90.091743
[R_front_hand01_02]
24 71.020905 0.000060 0.000119 0.002323 -0.000334 106.381714 71.020905
25 71.020905 0.000060 0.000119 0.002323 -0.000334 106.381714 71.020905
[R_front_hand02_02]
24 71.020844 -0.000030 -0.000119 0.002323 -0.000334 106.381714 71.020836
25 71.020844 -0.000030 -0.000119 0.002323 -0.000334 106.381714 71.020836
[R_front_hand03_02]
24 71.020905 0.000000 0.000030 0.002323 -0.000334 106.381714 71.020905
25 71.020905 0.000000 0.000030 0.002323 -0.000334 106.381714 71.020905
[null_rope01_connect]
24 328.732483 0.000000 -0.000238 -123.593422 -63.260777 174.342438 328.732483
25 328.732483 0.000000 -0.000238 -123.267952 -64.037766 173.510254 328.732483
[Rope1_Seg01]
24 -0.000024 0.000009 0.000036 103.592606 10.590499 -143.873764 0.000044
25 -0.000023 0.000008 0.000031 105.487923 8.244976 -150.576202 0.000039
[Rope1_Seg02]
24 139.999863 -0.000179 0.000000 45.785889 -13.816805 -19.090164 139.999863
25 139.999863 -0.000179 0.000000 31.322393 -13.683050 -15.358982 139.999863
[Rope1_Seg03]
24 139.999924 0.000060 -0.000060 30.133177 -35.337299 -8.027575 139.999924
25 139.999924 0.000060 -0.000060 31.517365 -31.375868 -13.862361 139.999924
[Rope1_Seg04]
24 139.999924 -0.000060 -0.000119 1.681031 -27.636436 11.344462 139.999924
25 139.999924 -0.000060 -0.000119 4.543506 -27.762848 6.526237 139.999924
[Rope1_Seg05]
24 139.999832 0.000119 -0.000060 -4.425898 -24.173744 14.485249 139.999832
25 139.999832 0.000119 -0.000060 -4.291031 -24.352287 16.493595 139.999832
[Rope1_Seg06]
24 139.999954 0.000119 -0.000060 -3.201303 -11.630682 5.880063 139.999954
25 139.999954 0.000119 -0.000060 -3.410089 -13.127823 7.525869 139.999954
[Rope1_Seg07]
24 139.999985 0.000060 0.000000 -2.246358 -6.167487 2.733586 139.999985
25 139.999985 0.000060 0.000000 -2.355219 -6.631692 3.210619 139.999985
[Rope1_Seg09]
24 121.602913 0.000119 -0.000089 -89.793175 -1.359789 0.847147 121.602913
25 121.602913 0.000119 -0.000089 -89.793175 -1.359789 0.847147 121.602913
[L_mid_hand01]
24 103.859421 1.038730 8.195221 130.544373 -67.584534 -38.866943 104.187431
25 103.859421 1.038730 8.195221 130.544373 -67.584534 -38.866943 104.187431
[L_mid_hand02]
24 105.572853 -4.139662 -10.864139 -168.923172 43.409321 -73.498909 106.211075
25 105.572853 -4.139662 -10.864139 -168.923172 43.409309 -73.498886 106.211075
[L_mid_hand03]
24 104.641464 17.579376 -3.913581 -6.012627 17.808178 74.893677 106.179977
25 104.641464 17.579376 -3.913581 -6.012627 17.808174 74.893669 106.179977
[null_rope02_connect]
24 328.732849 0.000179 -0.000119 -112.663681 30.517323 14.621707 328.732849
25 328.732849 0.000179 -0.000119 -113.379807 29.817629 14.044002 328.732849
[Rope2_Seg01]
24 -0.000099 0.000094 0.000000 -83.748291 30.083569 -15.109769 0.000137
25 -0.000107 0.000093 0.000000 -73.336685 25.606863 -12.529926 0.000142
[Rope2_Seg02]
24 139.999741 -0.000060 -0.000119 -12.430933 0.291793 7.871397 139.999756
25 139.999741 -0.000060 -0.000119 -12.655128 0.403038 8.418955 139.999756
[Rope2_Seg03]
24 140.000107 0.000030 0.000000 -14.873780 -2.522425 13.816992 140.000107
25 140.000107 0.000030 0.000000 -15.226735 -2.721164 15.094687 140.000107
[Rope2_Seg04]
24 139.999802 0.000000 -0.000060 -13.618977 -12.313349 23.539408 139.999802
25 139.999802 0.000000 -0.000060 -13.023703 -13.131804 24.237032 139.999802
[Rope2_Seg05]
24 139.999985 -0.000060 0.000119 -7.207701 -12.683923 24.414131 139.999985
25 139.999985 -0.000060 0.000119 -6.772028 -11.340919 26.503033 139.999985
[Rope2_Seg06]
24 139.999893 -0.000030 -0.000119 -0.538194 -8.236885 19.949862 139.999893
25 139.999893 -0.000030 -0.000119 0.530007 -7.254455 21.649433 139.999893
[Rope2_Seg07]
24 139.999893 0.000060 -0.000060 1.835930 -5.753247 11.498330 139.999893
25 139.999893 0.000060 -0.000060 2.407389 -4.506466 11.257417 139.999893
[Rope2_Seg09]
24 121.338966 0.000089 -0.000060 33.793236 -1.359788 -0.847141 121.338966
25 121.338966 0.000089 -0.000060 33.793236 -1.359788 -0.847141 121.338966
[R_mid_hand01]
24 104.680779 11.144459 -10.335981 -16.212063 45.237240 70.462852 105.778534
25 104.680779 11.144459 -10.335981 -16.212063 45.237247 70.462852 105.778534
[R_mid_hand02]
24 104.070427 2.443552 8.231699 49.067368 -67.749771 39.286453 104.424065
25 104.070427 2.443552 8.231699 49.067368 -67.749771 39.286453 104.424065
[R_mid_hand03]
24 106.028137 -11.221827 -5.996406 -177.101105 15.551026 -76.585571 106.788818
25 106.028137 -11.221827 -5.996406 -177.101105 15.551026 -76.585571 106.788818
[spine02]
24 129.756927 0.001550 0.000119 0.360061 -4.044797 -12.915058 129.756927
25 129.756927 0.001550 0.000119 0.360061 -4.044797 -12.915058 129.756927
[spine03]
24 78.614098 0.081599 -4.898990 1.896495 3.831288 16.473045 78.766640
25 78.614105 0.081604 -4.898990 1.896495 3.831288 16.473045 78.766647
[pelvis]
24 169.435242 0.051022 0.000000 -0.060465 -0.180225 14.087930 169.435257
25 169.435242 0.051022 0.000000 -0.060465 -0.180225 14.087930 169.435257
[null_rope03_connect]
24 -1.257226 -2.466202 137.391083 51.617477 -79.368530 28.702972 137.418976
25 -1.257226 -2.466202 137.391083 49.748123 -78.560211 30.178932 137.418976
[null_rope04_connect]
24 -1.259640 -2.480268 -137.844437 51.617477 -79.368530 28.702972 137.872513
25 -1.259640 -2.480268 -137.844437 49.748123 -78.560211 30.178932 137.872513
[Rope3_Seg01]
24 0.000010 0.000009 -0.000036 178.268478 -72.802101 -37.396061 0.000038
25 0.000010 0.000008 -0.000031 151.218338 -77.351746 -13.443442 0.000033
[Rope3_Seg02]
24 139.999924 -0.000119 0.000060 15.352271 -26.592228 1.664723 139.999924
25 139.999924 -0.000119 0.000060 14.240421 -24.074785 0.251690 139.999924
[Rope3_Seg03]
24 139.999924 -0.000119 0.000119 9.868897 -12.149560 7.252650 139.999924
25 139.999924 -0.000119 0.000119 14.258618 -17.651590 8.853073 139.999924
[Rope3_Seg04]
24 139.999924 0.000119 0.000000 10.421129 -13.560238 5.349136 139.999924
25 139.999924 0.000119 0.000000 10.671079 -12.940997 6.526967 139.999924
[Rope3_Seg05]
24 139.999924 -0.000238 0.000060 16.324629 -20.187366 8.397972 139.999924
25 139.999924 -0.000238 0.000060 17.265842 -20.587561 3.931938 139.999924
[Rope3_Seg06]
24 139.999893 -0.000119 -0.000060 9.693388 -9.981438 8.540148 139.999893
25 139.999893 -0.000119 -0.000060 13.694519 -13.125132 6.844206 139.999893
[Rope3_Seg07]
24 139.999771 0.000060 -0.000119 4.988903 -4.342261 5.601058 139.999771
25 139.999771 0.000060 -0.000119 6.912615 -5.274307 5.443801 139.999771
[Rope3_Seg08]
24 139.999985 -0.000060 0.000000 2.900256 -2.203821 3.434875 139.999985
25 139.999985 -0.000060 0.000000 3.927821 -2.607208 3.451970 139.999985
[Rope3_Seg09]
24 90.185997 -0.000179 -0.000060 89.793228 -1.359877 -0.847183 90.185997
25 90.185997 -0.000179 -0.000060 89.793228 -1.359877 -0.847183 90.185997
[R_rear_hand01]
24 103.366196 -6.073594 -10.757982 -177.714203 24.565960 -73.910950 104.101845
25 103.366196 -6.073594 -10.757982 -177.714203 24.565960 -73.910950 104.101845
[R_rear_hand02]
24 100.509819 12.039542 -7.992327 -12.874829 36.868488 72.167213 101.543350
25 100.509819 12.039542 -7.992327 -12.874829 36.868488 72.167213 101.543350
[R_rear_hand03]
24 101.539970 5.215704 5.435467 71.484627 -71.816643 21.513817 101.819031
25 101.539970 5.215704 5.435467 71.484581 -71.816628 21.513813 101.819031
[Rope4_Seg01]
24 -0.000010 0.000018 -0.000211 92.696304 -45.392818 -151.841492 0.000212
25 -0.000011 0.000015 -0.000214 94.671158 -50.039810 -150.003128 0.000214
[Rope4_Seg02]
24 139.999985 0.000060 0.000119 -17.569115 8.577886 -15.488293 139.999985
25 139.999985 0.000060 0.000119 -17.614073 5.874223 -17.665903 139.999985
[Rope4_Seg03]
24 139.999924 0.000000 -0.000238 -28.470661 27.825661 -30.287949 139.999924
25 139.999924 0.000000 -0.000238 -32.914776 23.064861 -35.803509 139.999924
[Rope4_Seg04]
24 139.999985 0.000000 0.000119 -6.164874 28.303280 -12.269711 139.999985
25 139.999985 0.000000 0.000119 -8.586220 25.441683 -14.143547 139.999985
[Rope4_Seg05]
24 139.999802 -0.000060 -0.000119 1.098861 15.730061 -6.930945 139.999802
25 139.999802 -0.000060 -0.000119 -0.764504 15.986732 -8.578783 139.999802
[Rope4_Seg06]
24 139.999924 0.000000 0.000060 6.280298 22.842558 -13.172309 139.999924
25 139.999924 0.000000 0.000060 3.475616 26.463945 -17.341269 139.999924
[Rope4_Seg07]
24 139.999802 0.000000 0.000000 10.883958 16.669382 -13.023643 139.999802
25 139.999802 0.000000 0.000000 8.782284 17.183537 -13.917919 139.999802
[Rope4_Seg08]
24 139.999924 0.000000 0.000119 5.198645 6.057513 -7.030707 139.999924
25 139.999924 0.000000 0.000119 3.930668 6.074278 -6.845896 139.999924
[Rope4_Seg09]
24 90.185791 0.000060 0.000060 -135.617828 2.228885 0.850567 90.185791
25 90.185791 0.000060 0.000060 -135.617828 2.228885 0.850567 90.185791
[L_rear_hand01]
24 101.696655 -8.392275 -7.654577 -12.874829 -36.868488 107.832764 102.329041
25 101.696655 -8.392275 -7.654577 -12.874829 -36.868488 107.832764 102.329041
[L_rear_hand02]
24 102.726799 -1.568258 5.773216 71.484627 71.816643 158.486176 102.900848
25 102.726799 -1.568258 5.773216 71.484581 71.816628 158.486160 102.900848
[L_rear_hand03]
24 104.552910 9.721220 -10.420293 -177.714203 -24.565960 -106.089035 105.519653
25 104.552910 9.721220 -10.420293 -177.714203 -24.565960 -106.089035 105.519653
